<?xml version="1.0" encoding="utf-8"?>
<!-- Generator: Adobe Illustrator 21.0.0, SVG Export Plug-In . SVG Version: 6.00 Build 0)  -->
<svg version="1.1" id="图层_1" xmlns="http://www.w3.org/2000/svg" xmlns:xlink="http://www.w3.org/1999/xlink" x="0px" y="0px"
	 viewBox="0 0 200 200" style="enable-background:new 0 0 200 200;" xml:space="preserve">
<style type="text/css">
	.st0{fill:#8D9096;}
</style>
<path class="st0" d="M185.3,65V30c0-5.5-4.5-10-10-10l0,0H83.4l-1.8-4.1C80,12.3,76.4,10,72.4,10H14.8c-5.5,0-10,4.5-10,10v160
	c0,5.5,4.5,10,10,10h0h170c5.5,0,10-4.5,10-10l0,0V75.1C194.9,69.7,190.7,65.3,185.3,65z M171.8,65H93.9l-6.6-31.3h84.6L171.8,65z
	 M181.8,176.5H18.1v-153H70l2.4,5.6l9.3,44.1c0,0.2,0,0.5,0,0.7v1c0.2,0.4,0.5,0.8,0.8,1.2l0.6,0.7l1.4,0.9h0.7
	c0.8,0.1,1.6,0.1,2.4,0h93.5L181.8,176.5z"/>
</svg>
