<?xml version="1.0" standalone="no"?><!DOCTYPE svg PUBLIC "-//W3C//DTD SVG 1.1//EN" "http://www.w3.org/Graphics/SVG/1.1/DTD/svg11.dtd"><svg class="icon" width="200px" height="200.00px" viewBox="0 0 1024 1024" version="1.1" xmlns="http://www.w3.org/2000/svg"><path d="M498.741641 0C260.850469 0 68.006471 192.84264 68.006471 430.73517c0 235.425289 188.881748 426.7091 423.367394 430.644193l2.795844 162.620637s173.19569-96.260413 334.330823-316.159873c0.027157-0.042094 0.052957-0.080114 0.085546-0.122208 62.949267-74.883543 100.890733-171.494285 100.890733-276.982749C929.476811 192.84264 736.632813 0 498.741641 0z m45.955585 700.817249h-105.950138v-103.690651h105.950138v103.690651z m34.959595-242.183383c-31.776758 21.307619-45.636487 44.719928-42.533766 71.696634l0.042094 0.742752v27.231984h-90.88191v-29.825507c-1.750288-53.651965 23.662157-99.956522 75.54754-137.414587 42.93162-29.528134 62.286629-61.428458 57.650877-94.886254-4.652046-38.381414-26.536757-58.5525-66.92238-61.782861a149.95583 149.95583 0 0 0-8.322355-0.238984c-51.859583 0-82.203794 28.84377-92.780205 88.177042l-1.315771 7.404438-90.558738-30.12831 1.242447-5.712538c22.404774-103.192314 88.785366-153.761925 197.483823-150.224687 97.187835 5.373072 150.797706 57.052059 159.496189 153.613918l0.021726 0.397854c1.713626 59.052194-31.316442 113.201138-98.169571 160.945032v0.004074z m0 0" fill="#48a9ea" /></svg>